<svg width="115" height="104" viewBox="0 0 115 104" fill="none" xmlns="http://www.w3.org/2000/svg">
<circle cx="6.89157" cy="97.1084" r="6.89157" transform="rotate(-90 6.89157 97.1084)" fill="#E3E3E3"/>
<circle cx="6.89157" cy="67.0362" r="6.89157" transform="rotate(-90 6.89157 67.0362)" fill="#E3E3E3"/>
<circle cx="6.89157" cy="36.9634" r="6.89157" transform="rotate(-90 6.89157 36.9634)" fill="#E3E3E3"/>
<circle cx="6.89157" cy="6.89163" r="6.89157" transform="rotate(-90 6.89157 6.89163)" fill="#E3E3E3"/>
<circle cx="31.9521" cy="97.1084" r="6.89157" transform="rotate(-90 31.9521 97.1084)" fill="#E3E3E3"/>
<circle cx="31.9521" cy="67.0362" r="6.89157" transform="rotate(-90 31.9521 67.0362)" fill="#E3E3E3"/>
<circle cx="31.9521" cy="36.9634" r="6.89157" transform="rotate(-90 31.9521 36.9634)" fill="#E3E3E3"/>
<circle cx="31.9521" cy="6.89163" r="6.89157" transform="rotate(-90 31.9521 6.89163)" fill="#E3E3E3"/>
<circle cx="57.0127" cy="97.1084" r="6.89157" transform="rotate(-90 57.0127 97.1084)" fill="#E3E3E3"/>
<circle cx="57.0127" cy="67.0362" r="6.89157" transform="rotate(-90 57.0127 67.0362)" fill="#E3E3E3"/>
<circle cx="57.0127" cy="36.9634" r="6.89157" transform="rotate(-90 57.0127 36.9634)" fill="#E3E3E3"/>
<circle cx="57.0127" cy="6.89163" r="6.89157" transform="rotate(-90 57.0127 6.89163)" fill="#E3E3E3"/>
<circle cx="82.0722" cy="97.1084" r="6.89157" transform="rotate(-90 82.0722 97.1084)" fill="#E3E3E3"/>
<circle cx="82.0722" cy="67.0362" r="6.89157" transform="rotate(-90 82.0722 67.0362)" fill="#E3E3E3"/>
<circle cx="82.0722" cy="36.9634" r="6.89157" transform="rotate(-90 82.0722 36.9634)" fill="#E3E3E3"/>
<circle cx="82.0722" cy="6.89163" r="6.89157" transform="rotate(-90 82.0722 6.89163)" fill="#E3E3E3"/>
<circle cx="107.133" cy="97.1084" r="6.89157" transform="rotate(-90 107.133 97.1084)" fill="#E3E3E3"/>
<circle cx="107.133" cy="67.0362" r="6.89157" transform="rotate(-90 107.133 67.0362)" fill="#E3E3E3"/>
<circle cx="107.133" cy="36.9634" r="6.89157" transform="rotate(-90 107.133 36.9634)" fill="#E3E3E3"/>
<circle cx="107.133" cy="6.89163" r="6.89157" transform="rotate(-90 107.133 6.89163)" fill="#E3E3E3"/>
</svg>
