<svg width="834" height="1292" viewBox="0 0 834 1292" fill="none" xmlns="http://www.w3.org/2000/svg">
<path d="M578.992 885.661C654.699 1000.32 538.964 1064.5 471.633 1082.25C264.069 1135.7 306.87 987.123 37.8101 993.473C-231.25 999.824 -154.722 946.446 -287.023 473.677C-419.324 0.907556 -48.8683 166.351 -32.9921 254.657C-17.1158 342.964 79.0188 346.617 226.962 285.349C374.906 224.081 551.079 521.6 457.886 614.478C364.693 707.355 484.359 742.333 578.992 885.661Z" stroke="#00ABAE" stroke-opacity="0.25"/>
<path d="M533.924 861.624C602.108 965.006 497.756 1022.94 437.057 1038.99C249.939 1087.3 288.591 953.269 46.0641 959.128C-196.463 964.988 -127.456 916.807 -246.478 490.463C-365.499 64.1196 -31.6611 213.158 -17.3938 292.797C-3.12658 372.437 83.5248 375.684 216.907 320.352C350.289 265.02 508.942 533.277 424.895 617.093C340.847 700.908 448.694 732.397 533.924 861.624Z" stroke="#00ABAE" stroke-opacity="0.25"/>
<path d="M498.88 843.177C561.273 937.676 465.89 990.563 410.4 1005.19C239.338 1049.25 274.612 926.796 52.8678 932.03C-168.876 937.263 -105.806 893.273 -214.841 503.643C-323.876 114.013 -18.5678 250.362 -5.48344 323.14C7.60083 395.917 86.8296 398.928 208.756 348.434C330.683 297.941 475.875 543.139 399.071 619.683C322.266 696.228 420.888 725.054 498.88 843.177Z" stroke="#00ABAE" stroke-opacity="0.25"/>
<path d="M466.289 824.65C523.144 910.823 436.164 959.09 385.567 972.453C229.591 1012.69 261.79 900.99 59.6174 905.834C-142.555 910.678 -85.0385 870.534 -184.326 515.188C-283.613 159.843 -5.29635 284.109 6.60989 350.485C18.5162 416.861 90.7505 419.582 201.931 373.488C313.111 327.395 445.41 550.993 375.36 620.834C305.311 690.674 395.219 716.935 466.289 824.65Z" stroke="#00ABAE" stroke-opacity="0.25"/>
<path d="M430.342 805.683C481.192 882.848 403.301 926.136 357.999 938.134C218.347 974.265 247.234 874.184 66.2465 878.635C-114.741 883.086 -63.2296 847.091 -151.915 528.815C-240.6 210.539 8.4791 321.708 19.1009 381.163C29.7228 440.618 94.3853 443.016 193.939 401.662C293.493 360.308 411.803 560.543 349.056 623.147C286.309 685.751 366.78 709.227 430.342 805.683Z" stroke="#00ABAE" stroke-opacity="0.25"/>
<path d="M392.535 785.774C437.125 853.374 368.89 891.252 329.199 901.741C206.842 933.325 232.112 845.688 73.5217 849.51C-85.0691 853.332 -39.9468 821.831 -117.792 543.054C-195.637 264.277 22.6684 361.741 32.0009 413.816C41.3334 465.89 97.9958 468.016 185.214 431.841C272.432 395.667 376.187 571.077 321.23 625.878C266.274 680.68 336.797 701.273 392.535 785.774Z" stroke="#00ABAE" stroke-opacity="0.25"/>
</svg>
