<svg width="1256" height="1212" viewBox="0 0 1256 1212" fill="none" xmlns="http://www.w3.org/2000/svg">
<path d="M1357.66 746.322C1513.68 703.504 1460.96 556.876 1415.1 488.914C1272.74 280.533 1195.37 445.334 961.994 230.959C728.619 16.5847 754.985 123.235 271.011 439.312C-212.963 755.389 243.502 896.277 326.076 830.383C408.65 764.489 496.628 835.84 580.125 1004.89C663.621 1173.93 1050.48 1047.11 1040 892.544C1029.52 737.98 1162.65 799.845 1357.66 746.322Z" stroke="#00ABAE" stroke-opacity="0.25"/>
<path d="M1299.1 732.646C1439.69 693.983 1392.22 561.709 1350.91 500.405C1222.67 312.439 1152.91 461.136 942.657 267.782C732.401 74.4284 756.138 170.64 319.945 455.902C-116.249 741.164 295.057 868.171 369.481 808.705C443.905 749.24 523.17 813.592 598.375 966.083C673.58 1118.57 1022.22 1004.07 1012.81 864.632C1003.4 725.19 1123.35 780.974 1299.1 732.646Z" stroke="#00ABAE" stroke-opacity="0.25"/>
<path d="M1253.75 721.795C1382.32 686.507 1338.88 565.663 1301.08 509.653C1183.75 337.917 1119.99 473.737 927.657 297.062C735.323 120.386 757.053 208.281 358.189 468.774C-40.6756 729.267 335.517 845.379 403.57 791.072C471.623 736.766 544.13 795.57 612.943 934.887C681.756 1074.21 1000.59 969.685 991.949 842.302C983.311 714.919 1093.02 765.905 1253.75 721.795Z" stroke="#00ABAE" stroke-opacity="0.25"/>
<path d="M1210.51 712.917C1327.72 680.708 1288.14 570.475 1253.69 519.384C1146.76 362.734 1088.62 486.645 913.316 325.499C738.013 164.353 757.809 244.533 394.178 482.224C30.5468 719.915 373.458 825.786 435.501 776.235C497.544 726.685 563.632 780.318 626.34 907.402C689.049 1034.49 979.702 939.092 971.846 822.888C963.99 706.683 1063.99 753.179 1210.51 712.917Z" stroke="#00ABAE" stroke-opacity="0.25"/>
<path d="M1163.95 701.828C1268.86 672.936 1233.46 574.165 1202.64 528.391C1106.99 388.042 1054.92 499.093 898.081 354.732C741.237 210.371 758.934 282.215 433.452 495.3C107.971 708.385 414.826 803.173 470.362 758.756C525.898 714.338 585.028 762.383 641.117 876.248C697.206 990.113 957.342 904.56 950.34 800.431C943.338 696.301 1032.82 737.942 1163.95 701.828Z" stroke="#00ABAE" stroke-opacity="0.25"/>
<path d="M1115.02 690.129C1206.96 664.851 1175.92 578.363 1148.9 538.279C1065.04 415.376 1019.43 512.6 881.93 386.172C744.435 259.744 759.958 322.653 474.723 509.164C189.488 695.675 458.455 778.726 507.122 739.845C555.79 700.964 607.625 743.042 656.806 842.75C705.987 942.457 933.973 867.597 927.816 776.423C921.66 685.249 1000.1 721.725 1115.02 690.129Z" stroke="#00ABAE" stroke-opacity="0.25"/>
</svg>
