<svg width="834" height="1292" viewBox="0 0 834 1292" fill="none" xmlns="http://www.w3.org/2000/svg">
<path d="M578.992 885.661C654.699 1000.32 538.964 1064.5 471.633 1082.25C264.069 1135.7 306.87 987.123 37.8101 993.473C-231.25 999.824 -154.722 946.446 -287.023 473.677C-419.324 0.907556 -48.8683 166.351 -32.9921 254.657C-17.1158 342.964 79.0188 346.617 226.962 285.349C374.906 224.081 551.079 521.6 457.886 614.478C364.693 707.355 484.359 742.333 578.992 885.661Z" stroke="#00ABAE" stroke-opacity="0.25"/>
<path d="M533.926 861.624C602.11 965.006 497.758 1022.94 437.059 1038.99C249.941 1087.3 288.593 953.269 46.0661 959.128C-196.461 964.988 -127.454 916.807 -246.476 490.463C-365.497 64.1196 -31.6591 213.158 -17.3919 292.797C-3.12463 372.437 83.5267 375.684 216.909 320.352C350.291 265.02 508.944 533.277 424.896 617.093C340.849 700.908 448.696 732.397 533.926 861.624Z" stroke="#00ABAE" stroke-opacity="0.25"/>
<path d="M498.88 843.177C561.273 937.676 465.89 990.562 410.4 1005.19C239.338 1049.25 274.612 926.796 52.8678 932.03C-168.876 937.263 -105.806 893.272 -214.841 503.643C-323.876 114.013 -18.5678 250.362 -5.48344 323.14C7.60083 395.917 86.8296 398.927 208.756 348.434C330.683 297.941 475.875 543.139 399.071 619.683C322.266 696.228 420.888 725.054 498.88 843.177Z" stroke="#00ABAE" stroke-opacity="0.25"/>
<path d="M466.29 824.651C523.146 910.823 436.166 959.091 385.569 972.453C229.593 1012.69 261.792 900.99 59.6193 905.834C-142.554 910.678 -85.0365 870.534 -184.324 515.189C-283.611 159.843 -5.2944 284.11 6.61185 350.485C18.5181 416.861 90.7525 419.582 201.933 373.488C313.113 327.395 445.412 550.993 375.362 620.834C305.313 690.674 395.221 716.935 466.29 824.651Z" stroke="#00ABAE" stroke-opacity="0.25"/>
<path d="M430.342 805.683C481.192 882.848 403.301 926.136 357.999 938.134C218.347 974.265 247.234 874.184 66.2465 878.635C-114.741 883.086 -63.2296 847.091 -151.915 528.815C-240.6 210.539 8.4791 321.708 19.1009 381.163C29.7228 440.618 94.3853 443.016 193.939 401.662C293.493 360.308 411.803 560.543 349.056 623.147C286.309 685.751 366.78 709.227 430.342 805.683Z" stroke="#00ABAE" stroke-opacity="0.25"/>
<path d="M392.531 785.774C437.121 853.374 368.886 891.252 329.195 901.741C206.838 933.325 232.108 845.688 73.5178 849.51C-85.073 853.332 -39.9507 821.831 -117.796 543.054C-195.641 264.277 22.6645 361.741 31.997 413.816C41.3295 465.89 97.9919 468.016 185.21 431.841C272.428 395.667 376.183 571.077 321.226 625.878C266.27 680.68 336.794 701.273 392.531 785.774Z" stroke="#00ABAE" stroke-opacity="0.25"/>
</svg>
