<svg width="730" height="1292" viewBox="0 0 730 1292" fill="none" xmlns="http://www.w3.org/2000/svg">
<path d="M474.992 885.661C550.699 1000.32 434.964 1064.5 367.633 1082.25C160.069 1135.7 202.87 987.122 -66.1899 993.473C-335.25 999.823 -258.722 946.445 -391.023 473.676C-523.324 0.907068 -152.868 166.35 -136.992 254.657C-121.116 342.964 -24.9812 346.616 122.962 285.349C270.906 224.081 447.079 521.599 353.886 614.477C260.693 707.355 380.359 742.332 474.992 885.661Z" stroke="#00ABAE" stroke-opacity="0.25"/>
<path d="M429.926 861.624C498.11 965.005 393.758 1022.94 333.059 1038.99C145.941 1087.3 184.593 953.269 -57.9339 959.128C-300.461 964.987 -231.454 916.806 -350.476 490.463C-469.497 64.1191 -135.659 213.157 -121.392 292.797C-107.125 372.436 -20.4733 375.684 112.909 320.352C246.291 265.02 404.944 533.277 320.896 617.092C236.849 700.908 344.696 732.396 429.926 861.624Z" stroke="#00ABAE" stroke-opacity="0.25"/>
<path d="M394.88 843.177C457.273 937.675 361.89 990.562 306.4 1005.19C135.338 1049.25 170.612 926.796 -51.1322 932.029C-272.876 937.263 -209.806 893.272 -318.841 503.642C-427.876 114.013 -122.568 250.362 -109.483 323.139C-96.3992 395.916 -17.1704 398.927 104.756 348.433C226.683 297.94 371.875 543.138 295.071 619.683C218.266 696.227 316.888 725.053 394.88 843.177Z" stroke="#00ABAE" stroke-opacity="0.25"/>
<path d="M362.29 824.65C419.146 910.822 332.166 959.09 281.569 972.453C125.593 1012.69 157.792 900.99 -44.3807 905.834C-246.554 910.678 -189.037 870.534 -288.324 515.188C-387.611 159.842 -109.294 284.109 -97.3882 350.485C-85.4819 416.861 -13.2475 419.582 97.933 373.488C209.113 327.394 341.412 550.993 271.362 620.833C201.313 690.674 291.221 716.935 362.29 824.65Z" stroke="#00ABAE" stroke-opacity="0.25"/>
<path d="M326.342 805.683C377.192 882.847 299.301 926.135 253.999 938.134C114.347 974.264 143.234 874.183 -37.7535 878.634C-218.741 883.085 -167.23 847.091 -255.915 528.815C-344.6 210.538 -95.5209 321.707 -84.8991 381.163C-74.2772 440.618 -9.61474 443.015 89.9392 401.662C189.493 360.308 307.803 560.542 245.056 623.146C182.309 685.751 262.78 709.227 326.342 805.683Z" stroke="#00ABAE" stroke-opacity="0.25"/>
<path d="M288.531 785.773C333.121 853.374 264.886 891.252 225.195 901.741C102.838 933.325 128.108 845.688 -30.4822 849.51C-189.073 853.332 -143.951 821.831 -221.796 543.054C-299.641 264.277 -81.3355 361.741 -72.003 413.815C-62.6705 465.889 -6.0081 468.016 81.21 431.841C168.428 395.666 272.183 571.077 217.226 625.878C162.27 680.679 232.794 701.273 288.531 785.773Z" stroke="#00ABAE" stroke-opacity="0.25"/>
</svg>
