<svg width="668" height="943" viewBox="0 0 668 943" fill="none" xmlns="http://www.w3.org/2000/svg">
<path d="M25.4246 733.661C-50.282 848.324 65.4532 912.495 132.784 930.248C340.348 983.702 297.547 835.123 566.607 841.473C835.667 847.823 759.139 794.446 891.44 321.676C1023.74 -151.093 653.285 14.3503 637.409 102.657C621.533 190.964 525.398 194.616 377.455 133.349C229.511 72.0811 53.3377 369.6 146.531 462.477C239.724 555.355 120.058 590.332 25.4246 733.661Z" stroke="#00ABAE" stroke-opacity="0.25"/>
<path d="M70.493 709.624C2.30916 813.006 106.661 870.941 167.36 886.986C354.478 935.299 315.826 801.269 558.353 807.128C800.88 812.987 731.873 764.806 850.895 338.463C969.916 -87.8808 636.078 61.1575 621.811 140.797C607.544 220.436 520.892 223.684 387.51 168.352C254.128 113.02 95.4751 381.277 179.523 465.092C263.57 548.908 155.723 580.397 70.493 709.624Z" stroke="#00ABAE" stroke-opacity="0.25"/>
<path d="M105.537 691.177C43.1441 785.676 138.527 838.562 194.017 853.193C365.079 897.247 329.805 774.796 551.549 780.03C773.294 785.263 710.223 741.272 819.258 351.643C928.294 -37.987 622.985 98.362 609.901 171.139C596.816 243.917 517.587 246.927 395.661 196.434C273.734 145.94 128.542 391.138 205.346 467.683C282.151 544.228 183.529 573.054 105.537 691.177Z" stroke="#00ABAE" stroke-opacity="0.25"/>
<path d="M138.129 672.65C81.2727 758.822 168.253 807.09 218.85 820.453C374.826 860.688 342.627 748.99 544.8 753.834C746.972 758.677 689.455 718.534 788.743 363.188C888.03 7.84225 609.713 132.109 597.807 198.485C585.901 264.861 513.666 267.581 402.486 221.488C291.306 175.394 159.007 398.993 229.057 468.833C299.106 538.674 209.198 564.935 138.129 672.65Z" stroke="#00ABAE" stroke-opacity="0.25"/>
<path d="M174.075 653.683C123.225 730.847 201.116 774.135 246.418 786.134C386.07 822.264 357.183 722.183 538.171 726.634C719.158 731.085 667.647 695.091 756.332 376.815C845.017 58.5386 595.938 169.707 585.316 229.163C574.694 288.618 510.032 291.015 410.478 249.662C310.924 208.308 192.614 408.542 255.361 471.147C318.108 533.751 237.637 557.227 174.075 653.683Z" stroke="#00ABAE" stroke-opacity="0.25"/>
<path d="M211.882 633.773C167.292 701.374 235.527 739.252 275.218 749.741C397.575 781.325 372.305 693.688 530.895 697.51C689.486 701.332 644.364 669.831 722.209 391.054C800.054 112.277 581.749 209.741 572.416 261.815C563.084 313.889 506.421 316.016 419.203 279.841C331.985 243.666 228.23 419.077 283.187 473.878C338.143 528.679 267.62 549.273 211.882 633.773Z" stroke="#00ABAE" stroke-opacity="0.25"/>
</svg>
