<svg width="822" height="1292" viewBox="0 0 822 1292" fill="none" xmlns="http://www.w3.org/2000/svg">
<path d="M254.422 885.661C178.715 1000.32 294.45 1064.5 361.781 1082.25C569.345 1135.7 526.544 987.123 795.604 993.473C1064.66 999.824 988.136 946.446 1120.44 473.677C1252.74 0.907556 882.282 166.351 866.406 254.657C850.53 342.964 754.395 346.617 606.452 285.349C458.508 224.081 282.335 521.6 375.528 614.478C468.721 707.355 349.055 742.333 254.422 885.661Z" stroke="#00ABAE" stroke-opacity="0.25"/>
<path d="M299.488 861.624C231.304 965.006 335.656 1022.94 396.355 1038.99C583.473 1087.3 544.821 953.269 787.348 959.129C1029.87 964.988 960.868 916.807 1079.89 490.463C1198.91 64.1196 865.073 213.158 850.806 292.797C836.539 372.437 749.887 375.684 616.505 320.352C483.123 265.02 324.47 533.277 408.518 617.093C492.565 700.908 384.718 732.397 299.488 861.624Z" stroke="#00ABAE" stroke-opacity="0.25"/>
<path d="M334.534 843.177C272.141 937.676 367.524 990.563 423.014 1005.19C594.076 1049.25 558.802 926.796 780.546 932.03C1002.29 937.263 939.22 893.273 1048.26 503.643C1157.29 114.013 851.982 250.362 838.898 323.14C825.813 395.917 746.584 398.927 624.658 348.434C502.731 297.941 357.539 543.139 434.343 619.683C511.148 696.228 412.526 725.054 334.534 843.177Z" stroke="#00ABAE" stroke-opacity="0.25"/>
<path d="M367.124 824.65C310.268 910.823 397.248 959.09 447.845 972.453C603.821 1012.69 571.622 900.99 773.795 905.834C975.968 910.678 918.451 870.534 1017.74 515.188C1117.02 159.843 838.708 284.109 826.802 350.485C814.896 416.861 742.662 419.582 631.481 373.488C520.301 327.395 388.002 550.993 458.052 620.834C528.101 690.674 438.193 716.935 367.124 824.65Z" stroke="#00ABAE" stroke-opacity="0.25"/>
<path d="M403.072 805.683C352.222 882.848 430.113 926.136 475.415 938.134C615.067 974.265 586.18 874.184 767.168 878.635C948.155 883.086 896.644 847.092 985.329 528.815C1074.01 210.539 824.935 321.708 814.313 381.163C803.691 440.619 739.029 443.016 639.475 401.662C539.921 360.309 421.611 560.543 484.358 623.147C547.105 685.751 466.634 709.227 403.072 805.683Z" stroke="#00ABAE" stroke-opacity="0.25"/>
<path d="M440.883 785.774C396.293 853.374 464.528 891.252 504.219 901.741C626.576 933.325 601.306 845.688 759.896 849.51C918.487 853.332 873.365 821.831 951.21 543.054C1029.06 264.277 810.75 361.741 801.417 413.816C792.085 465.89 735.422 468.016 648.204 431.842C560.986 395.667 457.231 571.077 512.188 625.878C567.144 680.68 496.621 701.273 440.883 785.774Z" stroke="#00ABAE" stroke-opacity="0.25"/>
</svg>
