<svg width="156" height="156" viewBox="0 0 156 156" fill="none" xmlns="http://www.w3.org/2000/svg">
<rect width="83.6" height="83.6" rx="41.8" transform="matrix(1 0 0 -1 36.2002 119.8)" fill="#00ABAE"/>
<rect x="1" y="-1" width="112" height="112" rx="56" transform="matrix(1 0 0 -1 21 133)" stroke="white" stroke-opacity="0.65" stroke-width="2"/>
<rect x="1" y="-1" width="154" height="154" rx="77" transform="matrix(1 0 0 -1 0 154)" stroke="white" stroke-opacity="0.17" stroke-width="2"/>
<path d="M71.6158 78.0603L71.6159 92.4583C71.6159 94.1324 73.8929 94.9708 75.2247 93.7871L91.4224 79.389C92.248 78.6552 92.248 77.4654 91.4224 76.7316L75.2247 62.3336C73.8929 61.1498 71.6159 61.9882 71.6159 63.6623L71.6158 78.0603Z" fill="white"/>
</svg>
